<svg width="300" height="600" viewBox="0 0 300 600" fill="none" xmlns="http://www.w3.org/2000/svg">
  <rect width="300" height="600" rx="20" fill="#F8FAFC" stroke="#E2E8F0" stroke-width="2"/>
  <rect x="20" y="60" width="260" height="80" rx="12" fill="#F97316" opacity="0.1"/>
  <rect x="40" y="80" width="120" height="20" rx="4" fill="#F97316"/>
  <rect x="40" y="110" width="80" height="16" rx="4" fill="#64748B"/>
  <rect x="20" y="160" width="260" height="60" rx="8" fill="white" stroke="#E2E8F0" stroke-width="1"/>
  <rect x="20" y="240" width="260" height="60" rx="8" fill="white" stroke="#E2E8F0" stroke-width="1"/>
  <rect x="20" y="320" width="260" height="60" rx="8" fill="white" stroke="#E2E8F0" stroke-width="1"/>
  <rect x="20" y="400" width="260" height="60" rx="8" fill="white" stroke="#E2E8F0" stroke-width="1"/>
  <rect x="20" y="480" width="260" height="60" rx="8" fill="white" stroke="#E2E8F0" stroke-width="1"/>
  <circle cx="40" cy="190" r="8" fill="#F97316"/>
  <circle cx="40" cy="270" r="8" fill="#F97316"/>
  <circle cx="40" cy="350" r="8" fill="#F97316"/>
  <circle cx="40" cy="430" r="8" fill="#F97316"/>
  <circle cx="40" cy="510" r="8" fill="#F97316"/>
</svg> 